<svg width="64px" height="64px" viewBox="0 0 32 32" xmlns="http://www.w3.org/2000/svg" fill="#fff"><g id="SVGRepo_bgCarrier" stroke-width="0"></g><g id="SVGRepo_tracerCarrier" stroke-linecap="round" stroke-linejoin="round"></g><g id="SVGRepo_iconCarrier"><path d="M15.32,26.06a10.74,10.74,0,0,1-8.19-3.73,1,1,0,0,0-1.42,1.42,12.74,12.74,0,0,0,19.22,0,1,1,0,0,0-1.42-1.42,10.74,10.74,0,0,1-8.19,3.73Z" style="fill: #fff;"></path><path d="M19.46,18a1,1,0,0,0-1.29.74,5.43,5.43,0,0,1-10.34,0A1,1,0,0,0,6.54,18a7.43,7.43,0,0,0,14.21,2.5,7.5,7.5,0,0,0-1.29-2.5Z" style="fill: #fff;"></path><circle cx="11" cy="11.5" r="2.5" style="fill: #fff;"></circle><circle cx="21" cy="11.5" r="2.5" style="fill: #fff;"></circle></g></svg>